<svg width="25" height="25" viewBox="0 0 25 25" fill="none" xmlns="http://www.w3.org/2000/svg">
<path d="M18.75 2.08398H8.33329C7.22822 2.08398 6.16842 2.52297 5.38701 3.30437C4.60561 4.08577 4.16663 5.14558 4.16663 6.25065V18.7507C4.16663 19.8557 4.60561 20.9155 5.38701 21.6969C6.16842 22.4783 7.22822 22.9173 8.33329 22.9173H18.75C19.3025 22.9173 19.8324 22.6978 20.2231 22.3071C20.6138 21.9164 20.8333 21.3865 20.8333 20.834V4.16732C20.8333 3.61478 20.6138 3.08488 20.2231 2.69418C19.8324 2.30348 19.3025 2.08398 18.75 2.08398ZM6.24996 6.25065C6.24996 5.69812 6.46945 5.16821 6.86015 4.77751C7.25085 4.38681 7.78076 4.16732 8.33329 4.16732H18.75V14.584H8.33329C7.59896 14.5871 6.87912 14.7886 6.24996 15.1673V6.25065ZM8.33329 20.834C7.78076 20.834 7.25085 20.6145 6.86015 20.2238C6.46945 19.8331 6.24996 19.3032 6.24996 18.7507C6.24996 18.1981 6.46945 17.6682 6.86015 17.2775C7.25085 16.8868 7.78076 16.6673 8.33329 16.6673H18.75V20.834H8.33329ZM10.4166 8.33398H14.5833C14.8596 8.33398 15.1245 8.22424 15.3199 8.02889C15.5152 7.83354 15.625 7.56858 15.625 7.29232C15.625 7.01605 15.5152 6.7511 15.3199 6.55575C15.1245 6.3604 14.8596 6.25065 14.5833 6.25065H10.4166C10.1404 6.25065 9.87541 6.3604 9.68006 6.55575C9.48471 6.7511 9.37496 7.01605 9.37496 7.29232C9.37496 7.56858 9.48471 7.83354 9.68006 8.02889C9.87541 8.22424 10.1404 8.33398 10.4166 8.33398V8.33398Z" fill="white"/>
</svg>
