<svg width="20" height="20" viewBox="0 0 20 20" fill="none" xmlns="http://www.w3.org/2000/svg">
<g clip-path="url(#clip0)">
<path d="M8.25004 3.53401C8.82365 3.39974 9.41093 3.33262 10 3.33401C15.8334 3.33401 19.1667 10.0007 19.1667 10.0007C18.6609 10.947 18.0576 11.838 17.3667 12.659M11.7667 11.7673C11.5378 12.013 11.2618 12.21 10.9552 12.3466C10.6485 12.4832 10.3175 12.5567 9.98178 12.5626C9.64611 12.5686 9.31268 12.5068 9.00138 12.3811C8.69009 12.2553 8.40731 12.0682 8.16991 11.8308C7.93252 11.5934 7.74537 11.3106 7.61963 10.9993C7.49389 10.688 7.43215 10.3546 7.43807 10.0189C7.44399 9.68325 7.51746 9.35221 7.6541 9.04554C7.79074 8.73888 7.98775 8.46288 8.23337 8.23401M14.95 14.9507C13.5255 16.0365 11.791 16.6381 10 16.6673C4.16671 16.6673 0.833374 10.0007 0.833374 10.0007C1.86995 8.06892 3.30765 6.38118 5.05004 5.05067L14.95 14.9507Z" stroke="white" stroke-width="2" stroke-linecap="round" stroke-linejoin="round"/>
<path d="M0.833374 0.833984L19.1667 19.1673" stroke="white" stroke-width="2" stroke-linecap="round" stroke-linejoin="round"/>
</g>
<defs>
<clipPath id="clip0">
<rect width="20" height="20" fill="white"/>
</clipPath>
</defs>
</svg>
