<svg width="20" height="24" viewBox="0 0 20 24" fill="none" xmlns="http://www.w3.org/2000/svg">
<path fill-rule="evenodd" clip-rule="evenodd" d="M10.1533 12.2338H10.082C8.77518 12.2118 7.71814 11.7574 6.94209 10.8884C5.22496 8.97394 5.51041 5.692 5.54163 5.3788C5.65313 3.00999 6.79491 1.88513 7.73152 1.36019C8.66368 0.835261 9.63598 0.755859 10.131 0.755859H10.1578H10.1756H10.2069C11.1078 0.773504 11.9151 0.985242 12.6064 1.37784C13.5341 1.90277 14.658 3.02763 14.7695 5.3788C14.8007 5.692 15.0862 8.97394 13.3691 10.8884C12.5885 11.7574 11.5315 12.2118 10.2247 12.2338H10.1801H10.1533ZM6.73503 5.46797C6.73382 5.47452 6.73247 5.48181 6.73247 5.48909C6.72801 5.51556 6.42472 8.52841 7.83856 10.0988C8.39607 10.7252 9.14983 11.034 10.131 11.0428H10.1533H10.1756C11.1613 11.034 11.9106 10.7252 12.4726 10.0988C13.8909 8.51959 13.5787 5.51997 13.5742 5.48909C13.5698 5.48027 13.5698 5.46703 13.5698 5.4538C13.4315 2.463 11.3843 1.97777 10.1801 1.9513H10.1444H10.1266C9.15429 1.9513 6.88411 2.29097 6.73693 5.4538C6.73693 5.45777 6.73602 5.46262 6.73503 5.46797Z" fill="white"/>
<path d="M10.082 12.2338L10.0778 12.4838H10.082V12.2338ZM6.94209 10.8884L7.12856 10.7219L7.1282 10.7215L6.94209 10.8884ZM5.54163 5.3788L5.79073 5.40364L5.79135 5.39056L5.54163 5.3788ZM7.73152 1.36019L7.85375 1.57828L7.8542 1.57803L7.73152 1.36019ZM10.2069 0.755859L10.2118 0.505859H10.2069V0.755859ZM12.6064 1.37784L12.4829 1.59523L12.4833 1.59542L12.6064 1.37784ZM14.7695 5.3788L14.5195 5.39066L14.5208 5.4036L14.7695 5.3788ZM13.3691 10.8884L13.5551 11.0555L13.5552 11.0553L13.3691 10.8884ZM10.2247 12.2338V12.4839L10.2289 12.4838L10.2247 12.2338ZM6.73247 5.48909L6.97899 5.53063L6.98247 5.51001V5.48909H6.73247ZM6.73503 5.46797L6.48923 5.42236L6.48923 5.42236L6.73503 5.46797ZM7.83856 10.0988L8.02531 9.93259L8.02436 9.93153L7.83856 10.0988ZM10.131 11.0428L10.1288 11.2928H10.131V11.0428ZM10.1756 11.0428V11.2928L10.1779 11.2928L10.1756 11.0428ZM12.4726 10.0988L12.2866 9.93175L12.2865 9.93185L12.4726 10.0988ZM13.5742 5.48909L13.8217 5.45335L13.8158 5.41284L13.7973 5.37631L13.5742 5.48909ZM13.5698 5.4538H13.82L13.8195 5.44226L13.5698 5.4538ZM10.1801 1.9513L10.1856 1.7013H10.1801V1.9513ZM6.73693 5.4538L6.48693 5.44217V5.4538H6.73693ZM10.082 12.4838H10.1533V11.9838H10.082V12.4838ZM6.75562 11.0549C7.58384 11.9823 8.7103 12.4607 10.0778 12.4838L10.0862 11.9839C8.84006 11.9628 7.85245 11.5325 7.12856 10.7219L6.75562 11.0549ZM5.29286 5.354C5.2763 5.52017 5.19554 6.43965 5.33821 7.56458C5.48025 8.68449 5.84798 10.043 6.75598 11.0553L7.1282 10.7215C6.31907 9.81936 5.97096 8.57965 5.83424 7.50167C5.69816 6.42872 5.77574 5.55063 5.79039 5.4036L5.29286 5.354ZM7.6093 1.14211C6.60465 1.70517 5.40784 2.90411 5.2919 5.36705L5.79135 5.39056C5.89842 3.11586 6.98517 2.06508 7.85375 1.57828L7.6093 1.14211ZM10.131 0.505859C9.6145 0.505859 8.59355 0.587837 7.60885 1.14236L7.8542 1.57803C8.73381 1.08269 9.65745 1.00586 10.131 1.00586V0.505859ZM10.1578 0.505859H10.131V1.00586H10.1578V0.505859ZM10.1756 0.505859H10.1578V1.00586H10.1756V0.505859ZM10.2069 0.505859H10.1756V1.00586H10.2069V0.505859ZM12.7298 1.16045C11.9984 0.745037 11.1495 0.524273 10.2118 0.505907L10.202 1.00581C11.0661 1.02274 11.8318 1.22545 12.4829 1.59523L12.7298 1.16045ZM15.0192 5.36696C14.9033 2.92307 13.7257 1.72393 12.7295 1.16026L12.4833 1.59542C13.3425 2.08161 14.4127 3.13219 14.5198 5.39065L15.0192 5.36696ZM13.5552 11.0553C14.4632 10.043 14.8309 8.68449 14.9729 7.56458C15.1156 6.43965 15.0349 5.52017 15.0183 5.354L14.5208 5.4036C14.5354 5.55063 14.613 6.42872 14.4769 7.50167C14.3402 8.57965 13.9921 9.81936 13.183 10.7215L13.5552 11.0553ZM10.2289 12.4838C11.5965 12.4607 12.7226 11.9823 13.5551 11.0555L13.1831 10.7213C12.4545 11.5325 11.4665 11.9628 10.2205 11.9839L10.2289 12.4838ZM10.1801 12.4838H10.2247V11.9838H10.1801V12.4838ZM10.1533 12.4838H10.1801V11.9838H10.1533V12.4838ZM6.98247 5.48909C6.98247 5.50048 6.98144 5.50889 6.98095 5.51242C6.98052 5.51552 6.98008 5.51765 6.98084 5.51358L6.48923 5.42236C6.48867 5.42535 6.48247 5.45507 6.48247 5.48909H6.98247ZM8.02436 9.93153C7.37139 9.20625 7.10099 8.12609 7.00228 7.18879C6.90399 6.25557 6.981 5.51873 6.97899 5.53063L6.48594 5.44755C6.47948 5.48591 6.40261 6.26873 6.50503 7.24116C6.60701 8.2095 6.8919 9.42096 7.65277 10.2661L8.02436 9.93153ZM10.1333 10.7928C9.20896 10.7845 8.52751 10.4968 8.02531 9.93259L7.65182 10.265C8.26463 10.9535 9.0907 11.2835 10.1288 11.2928L10.1333 10.7928ZM10.1533 10.7928H10.131V11.2928H10.1533V10.7928ZM10.1756 10.7928H10.1533V11.2928H10.1756V10.7928ZM12.2865 9.93185C11.7794 10.4971 11.1017 10.7845 10.1734 10.7928L10.1779 11.2928C11.2209 11.2835 12.0418 10.9533 12.6587 10.2657L12.2865 9.93185ZM13.3268 5.52483C13.3263 5.52154 13.4047 6.25844 13.3083 7.18752C13.2113 8.1227 12.942 9.20198 12.2866 9.93175L12.6586 10.2658C13.4215 9.41641 13.7053 8.20627 13.8056 7.23912C13.9066 6.26587 13.8266 5.48751 13.8217 5.45335L13.3268 5.52483ZM13.3198 5.4538C13.3198 5.4578 13.3196 5.47638 13.3214 5.49599C13.323 5.514 13.328 5.5561 13.3511 5.60187L13.7973 5.37631C13.8074 5.39613 13.8124 5.41346 13.8151 5.42491C13.8178 5.43647 13.8188 5.44548 13.8193 5.45021C13.82 5.45769 13.8198 5.46304 13.8198 5.4538H13.3198ZM10.1746 2.20124C10.7523 2.21394 11.5059 2.33713 12.1268 2.79252C12.7358 3.23919 13.2538 4.03257 13.32 5.46535L13.8195 5.44226C13.7475 3.88424 13.1727 2.9396 12.4225 2.38934C11.6842 1.84779 10.8121 1.71513 10.1856 1.70136L10.1746 2.20124ZM10.1444 2.2013H10.1801V1.7013H10.1444V2.2013ZM10.1266 2.2013H10.1444V1.7013H10.1266V2.2013ZM6.98666 5.46542C7.05711 3.95136 7.62925 3.15338 8.26275 2.72333C8.91065 2.28351 9.66281 2.2013 10.1266 2.2013V1.7013C9.61806 1.7013 8.74898 1.78893 7.98192 2.30965C7.20047 2.84013 6.56392 3.79341 6.4872 5.44218L6.98666 5.46542ZM6.98084 5.51358C6.98113 5.51199 6.98254 5.5046 6.9837 5.49669C6.98483 5.48898 6.98693 5.47322 6.98693 5.4538H6.48693C6.48693 5.44554 6.48739 5.43881 6.4878 5.43424C6.48822 5.42961 6.48871 5.42605 6.489 5.42404C6.48947 5.42089 6.48993 5.4186 6.48923 5.42236L6.98084 5.51358Z" fill="white"/>
<path d="M19.3188 18.8606C19.3188 18.8562 19.3188 18.8518 19.3188 18.8474C19.3188 18.8121 19.3143 18.7768 19.3143 18.7371C19.2875 17.8637 19.2295 15.8213 17.2939 15.1684C17.2805 15.164 17.2627 15.1596 17.2493 15.1552C15.2378 14.6479 13.5653 13.501 13.5474 13.4877C13.2753 13.2981 12.9007 13.3642 12.7089 13.6333C12.5171 13.9024 12.584 14.2729 12.8561 14.4626C12.9319 14.5156 14.707 15.7375 16.9281 16.3021C17.9673 16.6682 18.0833 17.7666 18.1145 18.7724C18.1145 18.8121 18.1145 18.8474 18.119 18.8826C18.1234 19.2797 18.0967 19.8928 18.0253 20.2457C17.3028 20.6515 14.4706 22.0543 10.1622 22.0543C5.87162 22.0543 3.02163 20.6471 2.29464 20.2413C2.22327 19.8884 2.19205 19.2752 2.20097 18.8782C2.20097 18.8429 2.20543 18.8077 2.20543 18.768C2.23666 17.7622 2.35262 16.6638 3.39182 16.2977C5.61293 15.733 7.38804 14.5067 7.46387 14.4582C7.73593 14.2685 7.80283 13.898 7.61105 13.6289C7.41927 13.3598 7.04462 13.2937 6.77255 13.4833C6.75471 13.4966 5.0911 14.6435 3.07069 15.1508C3.05285 15.1552 3.03947 15.1596 3.02609 15.164C1.09042 15.8213 1.03243 17.8637 1.00567 18.7327C1.00567 18.7724 1.00567 18.8077 1.00121 18.8429C1.00121 18.8474 1.00121 18.8518 1.00121 18.8562C0.996754 19.0856 0.992294 20.2634 1.22868 20.8545C1.27328 20.9691 1.35356 21.0662 1.4606 21.1324C1.5944 21.2206 4.8012 23.2409 10.1667 23.2409C15.5321 23.2409 18.7389 21.2162 18.8727 21.1324C18.9753 21.0662 19.0601 20.9691 19.1047 20.8545C19.3277 20.2678 19.3232 19.09 19.3188 18.8606Z" fill="white" stroke="white" stroke-width="0.5"/>
</svg>
