<svg width="23" height="23" viewBox="0 0 23 23" fill="none" xmlns="http://www.w3.org/2000/svg">
<path fill-rule="evenodd" clip-rule="evenodd" d="M11.7657 0.9375C14.6443 0.9375 17.3452 2.0456 19.3812 4.05909C21.4171 6.07259 22.5422 8.74374 22.5422 11.5906C22.5422 14.4374 21.4217 17.1085 19.3857 19.122C17.3088 21.1761 14.5486 22.2436 11.7611 22.2436C10.0258 22.2436 8.27674 21.8292 6.67803 20.9779C5.24329 22.0004 3.84043 22.2211 2.88849 22.2211C2.53323 22.2211 2.24172 22.1896 2.03676 22.158C1.59951 22.0905 1.26246 21.7526 1.19413 21.3202C1.12581 20.8878 1.349 20.4689 1.74526 20.2752C2.56966 19.8743 3.12534 19.0725 3.4715 18.3833C-0.0584173 14.1806 0.214867 7.95095 4.15016 4.05909C6.18612 2.0456 8.88708 0.9375 11.7657 0.9375ZM6.9331 19.7301C10.6771 21.9058 15.4368 21.3022 18.5112 18.2617C22.2324 14.5815 22.2324 8.59959 18.5067 4.91944C14.79 1.23929 8.73677 1.23929 5.01556 4.91944C1.45376 8.44193 1.28068 14.1176 4.61474 17.8428C4.70128 17.9418 4.75138 18.0635 4.76505 18.1851C4.79693 18.3112 4.78782 18.4463 4.73316 18.577C4.39156 19.3472 3.80855 20.3382 2.88394 21.0049H2.8885C3.69013 21.0049 4.90169 20.8067 6.13602 19.8608C6.14969 19.8472 6.16791 19.8337 6.18612 19.8247C6.38198 19.631 6.68714 19.586 6.9331 19.7301Z" fill="white"/>
<path d="M19.3812 4.05909L19.557 3.88134L19.3812 4.05909ZM19.3857 19.122L19.2099 18.9443L19.3857 19.122ZM6.67803 20.9779L6.79554 20.7572L6.65896 20.6845L6.53294 20.7743L6.67803 20.9779ZM2.03676 22.158L1.99858 22.4051L1.99875 22.4051L2.03676 22.158ZM1.74526 20.2752L1.63593 20.0503L1.63547 20.0506L1.74526 20.2752ZM3.4715 18.3833L3.6949 18.4955L3.76875 18.3485L3.66293 18.2225L3.4715 18.3833ZM4.15016 4.05909L4.32595 4.23685L4.15016 4.05909ZM18.5112 18.2617L18.3354 18.0839L18.5112 18.2617ZM6.9331 19.7301L6.80669 19.9458L6.80749 19.9463L6.9331 19.7301ZM18.5067 4.91944L18.3308 5.09708L18.331 5.0973L18.5067 4.91944ZM5.01556 4.91944L5.19135 5.09719L5.01556 4.91944ZM4.61474 17.8428L4.80306 17.6783L4.80103 17.676L4.61474 17.8428ZM4.76505 18.1851L4.51661 18.213L4.51851 18.2299L4.52267 18.2464L4.76505 18.1851ZM4.73316 18.577L4.96175 18.6784L4.96379 18.6735L4.73316 18.577ZM2.88394 21.0049L2.73773 20.8021L2.10975 21.2549H2.88394V21.0049ZM6.13602 19.8608L6.28809 20.0592L6.30061 20.0496L6.31182 20.0385L6.13602 19.8608ZM6.18612 19.8247L6.29693 20.0488L6.33317 20.0309L6.36192 20.0025L6.18612 19.8247ZM19.557 3.88134C17.474 1.82135 14.7098 0.6875 11.7657 0.6875V1.1875C14.5787 1.1875 17.2164 2.26985 19.2054 4.23685L19.557 3.88134ZM22.7922 11.5906C22.7922 8.67615 21.6399 5.94123 19.557 3.88134L19.2054 4.23685C21.1944 6.20395 22.2922 8.81133 22.2922 11.5906H22.7922ZM19.5615 19.2998C21.6446 17.2397 22.7922 14.5047 22.7922 11.5906H22.2922C22.2922 14.3701 21.1988 16.9774 19.2099 18.9443L19.5615 19.2998ZM11.7611 22.4936C14.6121 22.4936 17.4361 21.4017 19.5615 19.2998L19.2099 18.9443C17.1814 20.9504 14.4851 21.9936 11.7611 21.9936V22.4936ZM6.56053 21.1985C8.19647 22.0697 9.986 22.4936 11.7611 22.4936V21.9936C10.0655 21.9936 8.35702 21.5887 6.79554 20.7572L6.56053 21.1985ZM2.88849 22.4711C3.87962 22.4711 5.33665 22.2408 6.82313 21.1815L6.53294 20.7743C5.14993 21.7599 3.80125 21.9711 2.88849 21.9711V22.4711ZM1.99875 22.4051C2.21415 22.4383 2.5185 22.4711 2.88849 22.4711V21.9711C2.54795 21.9711 2.2693 21.9409 2.07477 21.9109L1.99875 22.4051ZM0.947197 21.3592C1.03248 21.899 1.45392 22.3209 1.99858 22.4051L2.07494 21.911C1.74509 21.86 1.49243 21.6063 1.44107 21.2812L0.947197 21.3592ZM1.63547 20.0506C1.1431 20.2912 0.861304 20.8156 0.947197 21.3592L1.44107 21.2812C1.39032 20.96 1.55489 20.6465 1.85504 20.4998L1.63547 20.0506ZM3.2481 18.2711C2.91069 18.9429 2.38655 19.6853 1.63593 20.0503L1.85459 20.5C2.75277 20.0632 3.34 19.2021 3.6949 18.4955L3.2481 18.2711ZM3.97436 3.88134C-0.0534678 7.86472 -0.333627 14.2417 3.28007 18.5441L3.66293 18.2225C0.216792 14.1196 0.483201 8.03719 4.32595 4.23685L3.97436 3.88134ZM11.7657 0.6875C8.82156 0.6875 6.05734 1.82135 3.97436 3.88134L4.32595 4.23685C6.3149 2.26985 8.9526 1.1875 11.7657 1.1875V0.6875ZM18.3354 18.0839C15.3414 21.0449 10.7053 21.633 7.05871 19.514L6.80749 19.9463C10.6489 22.1785 15.5321 21.5595 18.687 18.4394L18.3354 18.0839ZM18.331 5.0973C21.9577 8.67959 21.9577 14.5016 18.3354 18.0839L18.687 18.4394C22.5072 14.6614 22.5072 8.51958 18.6824 4.74158L18.331 5.0973ZM5.19135 5.09719C8.81523 1.51331 14.7116 1.51347 18.3308 5.09708L18.6826 4.74179C14.8684 0.965113 8.65832 0.965267 4.83977 4.74168L5.19135 5.09719ZM4.80103 17.676C1.55594 14.0502 1.72415 8.52613 5.19135 5.09719L4.83977 4.74168C1.18336 8.35773 1.00542 14.1849 4.42846 18.0095L4.80103 17.676ZM5.01348 18.1572C4.99442 17.9875 4.92468 17.8176 4.80305 17.6783L4.42644 18.0072C4.47789 18.0661 4.50835 18.1395 4.51661 18.213L5.01348 18.1572ZM4.96379 18.6735C5.03889 18.494 5.05285 18.3035 5.00742 18.1238L4.52267 18.2464C4.54101 18.3189 4.53675 18.3987 4.50254 18.4805L4.96379 18.6735ZM3.03016 21.2077C4.00638 20.5038 4.61204 19.4668 4.9617 18.6783L4.50463 18.4756C4.17108 19.2277 3.61072 20.1727 2.73773 20.8021L3.03016 21.2077ZM2.8885 20.7549H2.88394V21.2549H2.8885V20.7549ZM5.98395 19.6623C4.80242 20.5678 3.64792 20.7549 2.8885 20.7549V21.2549C3.73234 21.2549 5.00096 21.0456 6.28809 20.0592L5.98395 19.6623ZM6.07532 19.6006C6.03075 19.6226 5.99098 19.6526 5.96023 19.683L6.31182 20.0385C6.30914 20.0411 6.30733 20.0426 6.30614 20.0434C6.30501 20.0442 6.30214 20.0462 6.29693 20.0488L6.07532 19.6006ZM7.05951 19.5144C6.7133 19.3115 6.28458 19.3757 6.01033 19.647L6.36192 20.0025C6.47938 19.8863 6.66099 19.8604 6.80669 19.9458L7.05951 19.5144Z" fill="white"/>
<ellipse cx="12.3695" cy="12.1817" rx="0.598394" ry="0.591838" fill="white" stroke="white" stroke-width="0.5"/>
<ellipse cx="17.1566" cy="12.1817" rx="0.598391" ry="0.591838" fill="white" stroke="white" stroke-width="0.5"/>
<ellipse cx="7.58228" cy="12.1817" rx="0.598393" ry="0.591838" fill="white" stroke="white" stroke-width="0.5"/>
</svg>
